<svg width="200" height="200" viewBox="0 0 200 200" fill="none" xmlns="http://www.w3.org/2000/svg">
<g clip-path="url(#clip0_4_4)">
<rect width="200" height="200" rx="19" fill="url(#paint0_radial_4_4)"/>
<path d="M68.6261 124.684C65.5572 127.753 62.123 129.287 58.3235 129.287C54.5971 129.214 51.1994 127.643 48.1306 124.575L29.9367 106.381L96.4648 39.8525L94.8208 38.2085L106.11 29.1116L124.852 47.8534C127.92 50.9223 129.455 54.3564 129.455 58.156C129.528 61.8824 128.03 65.2801 124.961 68.3489L68.6261 124.684ZM114.001 57.3888L106.877 50.2647L50.5418 106.6L57.6659 113.724C58.0312 114.089 58.3966 114.089 58.7619 113.724L114.001 58.4848C114.366 58.1194 114.366 57.7541 114.001 57.3888Z" fill="url(#paint1_radial_4_4)"/>
<path d="M130.73 74.303C133.799 71.2341 137.233 69.6997 141.033 69.6997C144.759 69.7728 148.157 71.3437 151.225 74.4126L169.419 92.6064L102.891 159.135L104.535 160.779L93.2463 169.876L74.5044 151.134C71.4355 148.065 69.9011 144.631 69.9011 140.831C69.8281 137.105 71.3259 133.707 74.3948 130.638L130.73 74.303ZM85.3549 141.598L92.479 148.722L148.814 92.3872L141.69 85.2631C141.325 84.8978 140.959 84.8978 140.594 85.2631L85.3549 140.502C84.9896 140.868 84.9896 141.233 85.3549 141.598Z" fill="url(#paint2_radial_4_4)"/>
<rect x="-0.130493" y="99.946" width="141.421" height="141.421" rx="21" transform="rotate(-45 -0.130493 99.946)" stroke="url(#paint3_radial_4_4)" stroke-width="15"/>
</g>
<defs>
<radialGradient id="paint0_radial_4_4" cx="0" cy="0" r="1" gradientUnits="userSpaceOnUse" gradientTransform="translate(100 100) rotate(90) scale(100)">
<stop stop-color="#98649C"/>
<stop offset="1" stop-color="#47064D"/>
</radialGradient>
<radialGradient id="paint1_radial_4_4" cx="0" cy="0" r="1" gradientUnits="userSpaceOnUse" gradientTransform="translate(86.243 76.159) rotate(135) scale(71.8155 21.5447)">
<stop stop-color="white"/>
<stop offset="1" stop-color="#E2E0E2"/>
</radialGradient>
<radialGradient id="paint2_radial_4_4" cx="0" cy="0" r="1" gradientUnits="userSpaceOnUse" gradientTransform="translate(113.82 123.535) rotate(-45) scale(71.8155 20.5447)">
<stop stop-color="white"/>
<stop offset="1" stop-color="#E2E0E2"/>
</radialGradient>
<radialGradient id="paint3_radial_4_4" cx="0" cy="0" r="1" gradientUnits="userSpaceOnUse" gradientTransform="translate(70.5802 170.657) rotate(90) scale(70.7107)">
<stop stop-color="white"/>
<stop offset="1" stop-color="#E2E0E2"/>
</radialGradient>
<clipPath id="clip0_4_4">
<rect width="200" height="200" rx="19" fill="white"/>
</clipPath>
</defs>
</svg>
