<svg id="visual" viewBox="0 0 960 540" width="960" height="540" xmlns="http://www.w3.org/2000/svg" xmlns:xlink="http://www.w3.org/1999/xlink" version="1.1"><rect x="0" y="0" width="960" height="540" fill="#232c32"></rect><path d="M0 259L22.8 266C45.7 273 91.3 287 137 294.5C182.7 302 228.3 303 274 298C319.7 293 365.3 282 411.2 269C457 256 503 241 548.8 229.5C594.7 218 640.3 210 686 222.5C731.7 235 777.3 268 823 278.5C868.7 289 914.3 277 937.2 271L960 265L960 541L937.2 541C914.3 541 868.7 541 823 541C777.3 541 731.7 541 686 541C640.3 541 594.7 541 548.8 541C503 541 457 541 411.2 541C365.3 541 319.7 541 274 541C228.3 541 182.7 541 137 541C91.3 541 45.7 541 22.8 541L0 541Z" fill="#4d404d"></path><path d="M0 279L22.8 272.8C45.7 266.7 91.3 254.3 137 259C182.7 263.7 228.3 285.3 274 300.3C319.7 315.3 365.3 323.7 411.2 321.2C457 318.7 503 305.3 548.8 304.7C594.7 304 640.3 316 686 320.2C731.7 324.3 777.3 320.7 823 315.5C868.7 310.3 914.3 303.7 937.2 300.3L960 297L960 541L937.2 541C914.3 541 868.7 541 823 541C777.3 541 731.7 541 686 541C640.3 541 594.7 541 548.8 541C503 541 457 541 411.2 541C365.3 541 319.7 541 274 541C228.3 541 182.7 541 137 541C91.3 541 45.7 541 22.8 541L0 541Z" fill="#473a48"></path><path d="M0 276L22.8 290C45.7 304 91.3 332 137 344.3C182.7 356.7 228.3 353.3 274 350.3C319.7 347.3 365.3 344.7 411.2 344.7C457 344.7 503 347.3 548.8 337.7C594.7 328 640.3 306 686 298.3C731.7 290.7 777.3 297.3 823 310.2C868.7 323 914.3 342 937.2 351.5L960 361L960 541L937.2 541C914.3 541 868.7 541 823 541C777.3 541 731.7 541 686 541C640.3 541 594.7 541 548.8 541C503 541 457 541 411.2 541C365.3 541 319.7 541 274 541C228.3 541 182.7 541 137 541C91.3 541 45.7 541 22.8 541L0 541Z" fill="#413444"></path><path d="M0 362L22.8 365.2C45.7 368.3 91.3 374.7 137 377C182.7 379.3 228.3 377.7 274 368.2C319.7 358.7 365.3 341.3 411.2 331.5C457 321.7 503 319.3 548.8 319.2C594.7 319 640.3 321 686 326.8C731.7 332.7 777.3 342.3 823 345.2C868.7 348 914.3 344 937.2 342L960 340L960 541L937.2 541C914.3 541 868.7 541 823 541C777.3 541 731.7 541 686 541C640.3 541 594.7 541 548.8 541C503 541 457 541 411.2 541C365.3 541 319.7 541 274 541C228.3 541 182.7 541 137 541C91.3 541 45.7 541 22.8 541L0 541Z" fill="#3b2f3f"></path><path d="M0 416L22.8 416.7C45.7 417.3 91.3 418.7 137 407C182.7 395.3 228.3 370.7 274 365.2C319.7 359.7 365.3 373.3 411.2 379C457 384.7 503 382.3 548.8 385.8C594.7 389.3 640.3 398.7 686 397C731.7 395.3 777.3 382.7 823 378.5C868.7 374.3 914.3 378.7 937.2 380.8L960 383L960 541L937.2 541C914.3 541 868.7 541 823 541C777.3 541 731.7 541 686 541C640.3 541 594.7 541 548.8 541C503 541 457 541 411.2 541C365.3 541 319.7 541 274 541C228.3 541 182.7 541 137 541C91.3 541 45.7 541 22.8 541L0 541Z" fill="#35293b"></path><path d="M0 454L22.8 453.5C45.7 453 91.3 452 137 451C182.7 450 228.3 449 274 448.2C319.7 447.3 365.3 446.7 411.2 446.8C457 447 503 448 548.8 440.2C594.7 432.3 640.3 415.7 686 410.2C731.7 404.7 777.3 410.3 823 417.3C868.7 424.3 914.3 432.7 937.2 436.8L960 441L960 541L937.2 541C914.3 541 868.7 541 823 541C777.3 541 731.7 541 686 541C640.3 541 594.7 541 548.8 541C503 541 457 541 411.2 541C365.3 541 319.7 541 274 541C228.3 541 182.7 541 137 541C91.3 541 45.7 541 22.8 541L0 541Z" fill="#2f2436"></path><path d="M0 448L22.8 450.7C45.7 453.3 91.3 458.7 137 464.2C182.7 469.7 228.3 475.3 274 471C319.7 466.7 365.3 452.3 411.2 448.3C457 444.3 503 450.7 548.8 449.7C594.7 448.7 640.3 440.3 686 444C731.7 447.7 777.3 463.3 823 468.8C868.7 474.3 914.3 469.7 937.2 467.3L960 465L960 541L937.2 541C914.3 541 868.7 541 823 541C777.3 541 731.7 541 686 541C640.3 541 594.7 541 548.8 541C503 541 457 541 411.2 541C365.3 541 319.7 541 274 541C228.3 541 182.7 541 137 541C91.3 541 45.7 541 22.8 541L0 541Z" fill="#281f31"></path><path d="M0 482L22.8 486.3C45.7 490.7 91.3 499.3 137 498C182.7 496.7 228.3 485.3 274 484.8C319.7 484.3 365.3 494.7 411.2 498C457 501.3 503 497.7 548.8 492.2C594.7 486.7 640.3 479.3 686 477.8C731.7 476.3 777.3 480.7 823 486.5C868.7 492.3 914.3 499.7 937.2 503.3L960 507L960 541L937.2 541C914.3 541 868.7 541 823 541C777.3 541 731.7 541 686 541C640.3 541 594.7 541 548.8 541C503 541 457 541 411.2 541C365.3 541 319.7 541 274 541C228.3 541 182.7 541 137 541C91.3 541 45.7 541 22.8 541L0 541Z" fill="#221a2d"></path></svg>