<svg width="128" height="128" viewBox="0 0 128 128" fill="none" xmlns="http://www.w3.org/2000/svg">
<g clip-path="url(#clip0_2_2)">
<rect width="128" height="128" fill="#BFA6CE"/>
<path fill-rule="evenodd" clip-rule="evenodd" d="M0.306732 128L0 127.693L127.693 0L128 0.306732V128H0.306732Z" fill="url(#paint0_linear_2_2)"/>
<path fill-rule="evenodd" clip-rule="evenodd" d="M127.693 -2.68154e-08L128 0.306732L0.306732 128L2.68153e-08 127.693L1.11901e-05 -1.11901e-05L127.693 -2.68154e-08Z" fill="url(#paint1_linear_2_2)"/>
<path d="M34.9023 84.7071C32.368 87.2413 29.532 88.5085 26.3943 88.5085C23.317 88.4481 20.5112 87.1508 17.9769 84.6165L2.95234 69.5919L57.8917 14.6526L56.5341 13.2949L65.8566 5.78262L81.3337 21.2598C83.868 23.794 85.1351 26.63 85.1351 29.7677C85.1955 32.845 83.9585 35.6508 81.4242 38.1851L34.9023 84.7071ZM72.3733 29.1341L66.4901 23.251L19.9682 69.773L25.8513 75.6561C26.153 75.9578 26.4547 75.9578 26.7564 75.6561L72.3733 30.0392C72.675 29.7375 72.675 29.4358 72.3733 29.1341Z" fill="white"/>
<path d="M90.5988 45.3798C93.1331 42.8455 95.969 41.5784 99.1067 41.5784C102.184 41.6387 104.99 42.936 107.524 45.4703L122.549 60.4949L67.6094 115.434L68.967 116.792L59.6445 124.304L44.1674 108.827C41.6331 106.293 40.3659 103.457 40.3659 100.319C40.3056 97.2418 41.5426 94.436 44.0768 91.9018L90.5988 45.3798ZM53.1278 100.953L59.0109 106.836L105.533 60.3139L99.6498 54.4307C99.3481 54.129 99.0464 54.129 98.7447 54.4307L53.1278 100.048C52.8261 100.349 52.8261 100.651 53.1278 100.953Z" fill="white"/>
</g>
<defs>
<linearGradient id="paint0_linear_2_2" x1="64" y1="0" x2="64" y2="128" gradientUnits="userSpaceOnUse">
<stop stop-color="#D299D7"/>
<stop offset="1" stop-color="#3C1340"/>
</linearGradient>
<linearGradient id="paint1_linear_2_2" x1="64" y1="128" x2="64" y2="-5.59506e-06" gradientUnits="userSpaceOnUse">
<stop stop-color="#D299D7"/>
<stop offset="1" stop-color="#3C1340"/>
</linearGradient>
<clipPath id="clip0_2_2">
<rect width="128" height="128" fill="white"/>
</clipPath>
</defs>
</svg>
