<svg enable-background="new 0 0 520 520" height="512" viewBox="0 0 520 520" width="512" xmlns="http://www.w3.org/2000/svg"><g id="_x31_336_x2C__Calculator_x2C__Maths_x2C__Interface_x2C_"><g><path d="m461.333 20h-402.666c-21.321 0-38.667 17.346-38.667 38.667v402.667c0 21.32 17.346 38.666 38.667 38.666h402.667c21.32 0 38.666-17.346 38.666-38.667v-402.666c0-21.321-17.346-38.667-38.667-38.667zm18.667 38.667v191.333h-210v-210h191.333c10.293 0 18.667 8.374 18.667 18.667zm-421.333-18.667h191.333v210h-210v-191.333c0-10.293 8.374-18.667 18.667-18.667zm-18.667 421.333v-191.333h210v210h-191.333c-10.293 0-18.667-8.374-18.667-18.667zm421.333 18.667h-191.333v-210h210v191.333c0 10.293-8.374 18.667-18.667 18.667z"/><path d="m90 160h50v50c0 5.523 4.477 10 10 10s10-4.477 10-10v-50h50c5.523 0 10-4.477 10-10s-4.477-10-10-10h-50v-50c0-5.523-4.477-10-10-10s-10 4.477-10 10v50h-50c-5.523 0-10 4.477-10 10s4.477 10 10 10z"/><path d="m164.143 370 35.355-35.355c3.905-3.905 3.905-10.237 0-14.143-3.905-3.904-10.237-3.904-14.142 0l-35.356 35.355-35.355-35.355c-3.905-3.903-10.237-3.904-14.142 0-3.905 3.905-3.906 10.237 0 14.143l35.354 35.355-35.355 35.355c-3.905 3.905-3.905 10.237 0 14.143 3.906 3.905 10.237 3.904 14.142 0l35.356-35.355 35.355 35.355c3.906 3.904 10.237 3.905 14.142 0s3.906-10.237 0-14.143z"/><path d="m310 160h120c5.522 0 10-4.477 10-10s-4.478-10-10-10h-120c-5.522 0-10 4.477-10 10s4.478 10 10 10z"/><path d="m430 360h-120c-5.522 0-10 4.478-10 10s4.478 10 10 10h120c5.522 0 10-4.478 10-10s-4.478-10-10-10z"/><circle cx="370" cy="330" r="10"/><circle cx="370" cy="410" r="10"/></g></g></svg>