<svg width="394" height="394" viewBox="0 0 394 394" fill="none" xmlns="http://www.w3.org/2000/svg">
<g clip-path="url(#clip0_11_5)">
<rect x="74" y="74" width="246" height="246" rx="25" stroke="#EAEAEA" stroke-width="10"/>
<rect x="103" y="145" width="100" height="64" rx="8" stroke="#EAEAEA" stroke-width="10"/>
<rect x="103" y="231" width="62" height="64" rx="8" stroke="#EAEAEA" stroke-width="10"/>
<path d="M193 240H293" stroke="#EAEAEA" stroke-width="10" stroke-linecap="round"/>
<path d="M193 263H265" stroke="#EAEAEA" stroke-width="10" stroke-linecap="round"/>
<path d="M218 148H293" stroke="#EAEAEA" stroke-width="10" stroke-linecap="round"/>
<path d="M69 118H323" stroke="#EAEAEA" stroke-width="10"/>
<path d="M218 172H272" stroke="#EAEAEA" stroke-width="10" stroke-linecap="round"/>
<path d="M103 95H111" stroke="#EAEAEA" stroke-width="10" stroke-linecap="round"/>
<path d="M132 95H140" stroke="#EAEAEA" stroke-width="10" stroke-linecap="round"/>
<path d="M161 95H169" stroke="#EAEAEA" stroke-width="10" stroke-linecap="round"/>
<path d="M218 196H285" stroke="#EAEAEA" stroke-width="10" stroke-linecap="round"/>
<path d="M193 286H280" stroke="#EAEAEA" stroke-width="10" stroke-linecap="round"/>
<path d="M197 46L197 8" stroke="#EAEAEA" stroke-width="10" stroke-linecap="round"/>
<path d="M214 25L197 8" stroke="#EAEAEA" stroke-width="10" stroke-linecap="round"/>
<path d="M197 8L180 25" stroke="#EAEAEA" stroke-width="10" stroke-linecap="round"/>
<path d="M197 348L197 386" stroke="#EAEAEA" stroke-width="10" stroke-linecap="round"/>
<path d="M180 369L197 386" stroke="#EAEAEA" stroke-width="10" stroke-linecap="round"/>
<path d="M197 386L214 369" stroke="#EAEAEA" stroke-width="10" stroke-linecap="round"/>
<path d="M46 196H8" stroke="#EAEAEA" stroke-width="10" stroke-linecap="round"/>
<path d="M25 179L8 196" stroke="#EAEAEA" stroke-width="10" stroke-linecap="round"/>
<path d="M8 196L25 213" stroke="#EAEAEA" stroke-width="10" stroke-linecap="round"/>
<path d="M348 196L386 196" stroke="#EAEAEA" stroke-width="10" stroke-linecap="round"/>
<path d="M369 213L386 196" stroke="#EAEAEA" stroke-width="10" stroke-linecap="round"/>
<path d="M386 196L369 179" stroke="#EAEAEA" stroke-width="10" stroke-linecap="round"/>
<path d="M359.021 34.8909L385.891 8.02081" stroke="#EAEAEA" stroke-width="10" stroke-linecap="round"/>
<path d="M359.021 34.8909L385.891 8.02081" stroke="#EAEAEA" stroke-width="10" stroke-linecap="round"/>
<path d="M385.891 32.0625V8.02087" stroke="#EAEAEA" stroke-width="10" stroke-linecap="round"/>
<path d="M385.891 8.02087L361.849 8.02087" stroke="#EAEAEA" stroke-width="10" stroke-linecap="round"/>
<path d="M34.8909 34.8909L8.02081 8.02081" stroke="#EAEAEA" stroke-width="10" stroke-linecap="round"/>
<path d="M34.8909 34.8909L8.02081 8.02081" stroke="#EAEAEA" stroke-width="10" stroke-linecap="round"/>
<path d="M32.0624 8.02075H8.02081" stroke="#EAEAEA" stroke-width="10" stroke-linecap="round"/>
<path d="M8.02081 8.02075L8.02081 32.0624" stroke="#EAEAEA" stroke-width="10" stroke-linecap="round"/>
<path d="M359.021 359.021L385.891 385.891" stroke="#EAEAEA" stroke-width="10" stroke-linecap="round"/>
<path d="M359.021 359.021L385.891 385.891" stroke="#EAEAEA" stroke-width="10" stroke-linecap="round"/>
<path d="M361.849 385.891H385.891" stroke="#EAEAEA" stroke-width="10" stroke-linecap="round"/>
<path d="M385.891 385.891L385.891 361.849" stroke="#EAEAEA" stroke-width="10" stroke-linecap="round"/>
<path d="M34.8909 359.021L8.02081 385.891" stroke="#EAEAEA" stroke-width="10" stroke-linecap="round"/>
<path d="M8.02081 361.849L8.02082 385.891" stroke="#EAEAEA" stroke-width="10" stroke-linecap="round"/>
<path d="M8.02081 385.891H32.0624" stroke="#EAEAEA" stroke-width="10" stroke-linecap="round"/>
<path d="M34.8909 359.021L8.02081 385.891" stroke="#EAEAEA" stroke-width="10" stroke-linecap="round"/>
<path d="M8.02081 361.849L8.02082 385.891" stroke="#EAEAEA" stroke-width="10" stroke-linecap="round"/>
<path d="M8.02081 385.891H32.0624" stroke="#EAEAEA" stroke-width="10" stroke-linecap="round"/>
</g>
<defs>
<clipPath id="clip0_11_5">
<rect width="394" height="394" fill="white"/>
</clipPath>
</defs>
</svg>
