<svg width="200" height="200" viewBox="0 0 200 200" fill="none" xmlns="http://www.w3.org/2000/svg">
<path d="M70.412 120.217C67.8777 122.751 65.0417 124.018 61.904 124.018C58.8267 123.958 56.0209 122.66 53.4866 120.126L38.462 105.102L93.4014 50.1622L92.0438 48.8046L101.366 41.2923L116.843 56.7694C119.378 59.3037 120.645 62.1397 120.645 65.2773C120.705 68.3547 119.468 71.1605 116.934 73.6947L70.412 120.217ZM107.883 64.6438L102 58.7607L55.4779 105.283L61.361 111.166C61.6627 111.467 61.9644 111.467 62.2661 111.166L107.883 65.5489C108.185 65.2472 108.185 64.9455 107.883 64.6438Z" fill="black"/>
<path d="M126.108 80.8894C128.643 78.3552 131.479 77.088 134.616 77.088C137.694 77.1484 140.5 78.4457 143.034 80.9799L158.058 96.0046L103.119 150.944L104.477 152.302L95.1542 159.814L79.677 144.337C77.1428 141.802 75.8756 138.966 75.8756 135.829C75.8153 132.751 77.0522 129.946 79.5865 127.411L126.108 80.8894ZM88.6375 136.462L94.5206 142.346L141.043 95.8235L135.159 89.9404C134.858 89.6387 134.556 89.6387 134.254 89.9404L88.6375 135.557C88.3358 135.859 88.3358 136.161 88.6375 136.462Z" fill="black"/>
<rect x="9" y="99.5097" width="128" height="128" rx="21" transform="rotate(-45 9 99.5097)" stroke="black" stroke-width="11"/>
</svg>
